<svg version="1.0" xmlns="http://www.w3.org/2000/svg"
     width="890.000000pt" height="620.000000pt" viewBox="0 0 890.000000 620.000000"
     preserveAspectRatio="xMidYMid meet">
    <g transform="translate(0.000000,620.000000) scale(0.100000,-0.100000)"
       fill="#000000" stroke="none">
        <path d="M4340 5797 l0 -334 -97 -12 c-513 -62 -1001 -286 -1376 -629 -420
-385 -688 -874 -787 -1433 -37 -207 -39 -675 -3 -816 l5 -23 234 0 c129 0 234
3 234 6 0 32 36 240 56 321 168 691 726 1259 1415 1442 200 53 293 65 524 65
231 0 324 -12 523 -65 767 -203 1337 -850 1457 -1654 8 -55 15 -103 15 -107 0
-5 105 -8 234 -8 l234 0 5 23 c36 141 34 609 -3 816 -91 518 -331 979 -701
1350 -226 225 -506 416 -772 526 -53 22 -97 42 -97 45 0 3 79 142 175 309 96
166 175 306 175 310 0 14 -335 200 -344 191 -5 -5 -98 -163 -207 -352 -152
-263 -202 -343 -216 -341 -10 1 -75 10 -145 20 l-128 17 0 333 0 333 -205 0
-205 0 0 -333z"/>
        <path d="M2620 2220 l0 -200 625 0 625 0 0 200 0 200 -625 0 -625 0 0 -200z"/>
        <path d="M3920 2220 l0 -200 625 0 625 0 0 200 0 200 -625 0 -625 0 0 -200z" fill="#fc4349"/>
        <path d="M5220 2220 l0 -200 625 0 625 0 0 200 0 200 -625 0 -625 0 0 -200z"/>
        <path d="M2329 1815 c193 -368 485 -693 829 -923 78 -52 235 -144 222 -130 -3
3 -41 34 -85 69 -299 235 -530 571 -652 951 l-48 148 -163 0 -164 0 61 -115z"/>
        <path d="M6447 1782 c-122 -379 -354 -717 -652 -952 -44 -34 -82 -65 -85 -68
-13 -14 145 78 222 130 343 229 637 556 829 923 l61 115 -164 0 -163 0 -48
-148z"/>
        <path d="M3940 270 l0 -80 645 0 645 0 0 80 0 80 -645 0 -645 0 0 -80z"/>
    </g>
</svg>